<?xml version="1.0" encoding="utf-8" standalone="no"?>
<svg version="1.1" viewBox="0 0 48 60" xmlns="http://www.w3.org/2000/svg">
  <rect style="fill:none;opacity:0" width="48" height="60"/>
  <path style="fill:#ffffff;fill-opacity:1;fill-rule:evenodd" d="M 18.6,10.3 C 16.1,10.3 14,8.2 14,6 H 5 c -2.6,0 -5,2.5 -5,5 v 44 c 0,2.5 2.4,5 5,5 h 38 c 2.6,0 5,-2.5 5,-5 v -44 c 0,-2.5 -2.4,-5 -5,-5 h -9.2 c 0,2.4 -2,4.4 -4.5,4.4 z M 24,3.5 c 0.5,0 0.9,-0.4 0.9,-0.8 0,-0.5 -0.4,-0.8 -0.9,-0.8 -0.5,0 -0.9,0.4 -0.9,0.8 0,0.5 0.4,0.8 0.9,0.8 z m -2.8,-1.4 c 0,-1.2 1,-2.1 2.2,-2.1 h 1.2 c 1.2,0 2.2,1 2.2,2.1 v 1.2 h 2.6 c 1.6,0 2.9,1.2 2.9,2.8 v 0.1 c 0,1.5 -1.3,2.8 -2.9,2.8 H 18.6 c -1.6,0 -2.9,-1.2 -2.9,-2.8 v -0.1 c 0,-1.5 1.3,-2.8 2.9,-2.8 h 2.6"/>
</svg>
