<?xml version="1.0" encoding="utf-8" standalone="no"?>
<svg version="1.1" viewBox="0 0 340 256" xmlns="http://www.w3.org/2000/svg">
  <rect style="fill:none;opacity:0" width="340" height="256"/>
  <g style="fill:#ffffff">
    <path d="m 49,24 c -81,110 -11,200 1,214 l 5,-4 C -15,145 26,67 54,28 z"/>
    <path d="m 97,31 -5,3 c 8,17 18,44 21,59 l 6,-1 C 114,71 106,51 97,31 z"/>
    <path d="m 162,21 c 5,18 9,38 12,63 h 6 C 178,62 174,41 168,20 z"/>
    <path d="m 280,102 c -41,1 -124,23 -184,110 l 5,3 C 167,119 256,108 280,107 z"/>
    <path d="m 290,24 c 33,43 68,127 0,214 l -5,-4 c 16,-19 77,-103 0,-206 z"/>
  </g>
</svg>
