<?xml version="1.0" encoding="utf-8" standalone="no"?>
<svg version="1.1" viewBox="0 0 86 86" xmlns="http://www.w3.org/2000/svg">
  <defs>
    <linearGradient id="gradient" x1="43" y1="81" x2="43" y2="4" gradientUnits="userSpaceOnUse">
      <stop offset="0" style="stop-color:rgb(250,173,67);stop-opacity:1"/>
      <stop offset="1" style="stop-color:rgb(235,225,135);stop-opacity:1"/>
    </linearGradient>
  </defs>
  <rect style="fill:none;opacity:0" width="86" height="86"/>
  <path style="fill:url(#gradient)" d="m 85.7,84.27 c 0,0.79 -0.64,1.43 -1.43,1.43 H 1.73 C 0.94,85.69 0.3,85.05 0.3,84.27 V 1.73 C 0.3,0.94 0.94,0.3 1.73,0.3 h 82.54 c 0.79,0 1.43,0.64 1.43,1.43 z"/>
  <path style="fill:#d58426" d="m 17.3,9.7 c -3.7,0 -6.7,3 -6.7,6.7 v 53.3 c 0,3.7 3,6.7 6.7,6.7 h 53.3 c 3.7,0 6.7,-3 6.7,-6.7 V 16.3 c 0,-3.7 -3,-6.7 -6.7,-6.7 z"/>
  <rect style="fill:#231f20;fill-opacity:0.2" x="17.5" y="19.5" width="53" height="53"/>
  <rect style="fill:#ffffff" x="17.5" y="16.5" width="53" height="53"/>
  <g style="fill:#000000;opacity:0.85">
    <path d="M 21.8,20.8 V 35.5 H 36.5 V 20.8 Z m 2.1,2.1 H 34.4 V 33.4 H 24 z"/>
    <path d="m 26,25 v 6.3 h 6.3 V 25 z"/>
    <path d="M 51.2,20.8 V 35.5 H 65.9 V 20.8 Z m 2.1,2.1 H 63.8 V 33.4 H 53.3 z"/>
    <path d="m 55.5,25 v 6.3 h 6.2 V 25 z"/>
    <path d="M 21.8,50.2 V 64.9 H 36.5 V 50.2 Z m 2.1,2.1 H 34.4 V 62.8 H 23.9 z"/>
    <path d="m 26,54.4 v 6.3 h 6.3 v -6.3 z"/>
    <path d="m 21.8,37.6 v 2.1 h 2.1 v 2.1 H 26 v 2.1 h -2.1 v 4.2 h 4.2 v -4.2 h 2.1 V 41.8 H 28.1 V 39.7 H 26 v -2.1 z"/>
    <path d="m 30.2,43.9 v 4.2 h 2.1 v -4.2 z"/>
    <path d="m 32.3,37.6 v 4.2 h 2.1 v -2.1 h 4.2 v -2.1 z"/>
    <path d="m 40.7,20.8 v 6.3 h -2.1 v 4.2 h 2.1 v -2.1 h 2.1 v 6.3 h -2.1 v 4.2 h -2.1 v 2.1 h -4.2 v 2.1 h 4.2 v 10.5 h 6.3 V 52.3 H 47 v 2.1 h 2.1 v 2.1 h 4.2 v -2.1 h 8.4 V 52.3 H 51.2 v -2.1 h -8.4 v 2.1 h -2.1 v -2.1 h 2.1 V 48.1 H 40.7 V 46 h 2.1 v -2.1 h -2.1 v -2.1 h 4.2 V 46 h -2.1 v 2.1 H 47 V 46 h 4.2 v -6.3 h -2.1 v 2.1 H 47 v -2.1 h -4.2 v -2.1 h 2.1 V 29.2 H 47 v -2.1 h -4.2 v -4.2 h 2.1 V 25 H 47 v -2.1 h 2.1 v -2.1 z"/>
    <rect x="34.4" y="46" width="2.1" height="2.1"/>
    <rect x="38.6" y="33.4" width="2.1" height="2.1"/>
    <path d="m 40.7,56.5 v 4.2 h -2.1 v 4.2 h 6.3 v -2.1 h -2.1 v -4.2 h 2.1 v -2.1 z"/>
    <rect x="44.9" y="54.4" width="2.1" height="2.1"/>
    <rect x="44.9" y="60.7" width="2.1" height="2.1"/>
    <path d="m 47.000001,29.2 v 10.5 h 2.1 V 29.2 z"/>
    <path d="m 47,58.6 v 2.1 h 2.1 v 2.1 h 2.1 v -4.2 z"/>
    <rect x="47" y="62.8" width="2.1" height="2.1"/>
    <rect x="51.2" y="62.8" width="2.1" height="2.1"/>
    <rect x="53.3" y="41.8" width="2.1" height="2.1"/>
    <path d="m 59.6,39.7 v 2.1 h -2.1 v 2.1 H 55.4 V 46 h -2.1 v 4.3 h 4.2 V 46 h 4.2 v -2.1 h 2.1 l 0,-2.1 h -2.1 v -2.1 z"/>
    <path d="m 53.3,56.5 v 2.1 h 2.1 v 2.1 h -2.1 v 2.1 h 2.1 v 2.1 h 2.1 v -2.1 h 4.2 v -2.1 h -2.1 v -2.1 h -2.1 v -2.1 z"/>
    <path d="m 55.4,37.6 v 2.1 h 4.2 v -2.1 z"/>
    <rect x="59.6" y="48.1" width="2.1" height="2.1"/>
    <rect x="59.6" y="56.5" width="2.1" height="2.1"/>
    <rect x="61.7" y="46" width="2.1" height="2.1"/>
    <rect x="61.7" y="50.2" width="2.1" height="2.1"/>
    <rect x="61.7" y="62.8" width="2.1" height="2.1"/>
    <rect x="63.8" y="48.1" width="2.1" height="2.1"/>
    <path d="m 61.7,58.6 v 2.1 h 4.2 v -2.1 z"/>
    <path d="m 61.7,54.4 v 2.1 h 4.2 v -2.1 z"/>
  </g>
  <path style="fill:#231f20;opacity:0.2" d="M 57.3,9.7 H 30.7 v 8.3 c 0,2.8 2.2,5 5,5 h 16.7 c 2.8,0 5,-2.2 5,-5 z"/>
  <path style="fill:#4f5d73" d="M 57.3,6.4 H 30.7 v 8.3 c 0,2.8 2.2,5 5,5 h 16.7 c 2.8,0 5,-2.2 5,-5 z"/>
</svg>
